<?xml version="1.0" encoding="utf-8"?>
<!-- Generator: Adobe Illustrator 28.2.0, SVG Export Plug-In . SVG Version: 6.00 Build 0)  -->
<svg version="1.1" id="Layer_1" xmlns="http://www.w3.org/2000/svg" xmlns:xlink="http://www.w3.org/1999/xlink" x="0px" y="0px"
	 viewBox="0 0 32 30" style="enable-background:new 0 0 32 30;" xml:space="preserve">
<style type="text/css">
	.st0{fill:#B3B3B3;}
</style>
<path class="st0" d="M31,14.8L16.6,0.3c-0.1-0.1-0.2-0.2-0.4-0.2C16.1,0,16,0,15.8,0c-0.1,0-0.3,0-0.4,0.1c-0.1,0.1-0.3,0.1-0.4,0.2
	L0.7,14.8c-0.4,0.4-0.7,1-0.7,1.6c0,1.2,1,2.2,2.2,2.2h1.5v10.3c0,0.6,0.5,1.1,1.1,1.1h8.7v-7.9h3.9V30h9.3c0.6,0,1.1-0.5,1.1-1.1
	V18.6h1.5c0.6,0,1.2-0.2,1.6-0.7C31.9,17,31.9,15.6,31,14.8z"/>
</svg>
