<?xml version="1.0" encoding="utf-8"?>
<!-- Generator: Adobe Illustrator 28.2.0, SVG Export Plug-In . SVG Version: 6.00 Build 0)  -->
<svg version="1.1" id="Layer_1" xmlns="http://www.w3.org/2000/svg" xmlns:xlink="http://www.w3.org/1999/xlink" x="0px" y="0px"
	 viewBox="0 0 30 30" style="enable-background:new 0 0 30 30;" xml:space="preserve">
<style type="text/css">
	.st0{fill:#39542F;}
</style>
<g>
	<path class="st0" d="M16.8,4.9c-0.7,0-1.4,0.3-1.9,0.8c-0.5,0.5-0.8,1.2-0.8,1.9c0,0.7,0.3,1.4,0.8,1.9c0.5,0.5,1.2,0.8,1.9,0.8
		c0.7,0,1.4-0.3,1.9-0.8c0.5-0.5,0.8-1.2,0.8-1.9c0-0.7-0.3-1.4-0.8-1.9C18.2,5.1,17.6,4.9,16.8,4.9z"/>
	<path class="st0" d="M16.8,11l-5.1,0.8l-0.6,2l1.1,0c0.2,0,0.3,0,0.4,0s0.2,0,0.2,0c0,0.1,0,0.5-0.2,1.2l-1.8,6.3
		c-0.2,0.6-0.3,1.1-0.3,1.5c0,0.7,0.3,1.3,0.7,1.8c0.5,0.5,1.1,0.7,1.9,0.7c1.8,0,3.4-1.3,4.9-3.9l0.4-0.6l-1.7-1l-0.4,0.6
		c-0.2,0.4-0.4,0.6-0.6,0.9L18.6,11H16.8z"/>
	<path class="st0" d="M15,0C6.7,0,0,6.7,0,15s6.7,15,15,15s15-6.7,15-15S23.3,0,15,0z M15,27C8.4,27,3,21.6,3,15S8.4,3,15,3
		s12,5.4,12,12S21.6,27,15,27z"/>
</g>
</svg>
