<svg width="24" height="30" viewBox="0 0 24 30" fill="none" xmlns="http://www.w3.org/2000/svg">
<path d="M5.20954 22.7025H24C23.9955 24.3975 23.9685 25.6635 23.8305 26.6625C23.667 27.852 23.3685 28.482 22.911 28.932C22.452 29.3805 21.81 29.673 20.595 29.832C19.344 29.997 17.688 30 15.312 30H8.68954C6.31354 30 4.65754 29.997 3.40654 29.8335C2.19154 29.673 1.54954 29.3805 1.09054 28.932C0.633044 28.482 0.334543 27.852 0.171043 26.6625C0.109543 26.2125 0.0690439 25.707 0.0450439 25.1325C0.251089 24.5709 0.590368 24.0677 1.03375 23.6661C1.47712 23.2646 2.01135 22.9766 2.59054 22.827C3.02554 22.713 3.59104 22.7025 5.20954 22.7025Z" fill="#39542F"/>
<path fill-rule="evenodd" clip-rule="evenodd" d="M3.4065 0.168C2.1915 0.327 1.5495 0.6195 1.0905 1.068C0.633 1.518 0.3345 2.148 0.171 3.3375C0.00299976 4.563 0 6.186 0 8.5125V21.3675C0.593555 20.9612 1.25271 20.6603 1.9485 20.478C2.7405 20.2695 3.6645 20.2695 5.019 20.271H24V8.514C24 6.186 23.997 4.563 23.829 3.3375C23.6655 2.148 23.367 1.518 22.9095 1.068C22.4505 0.6195 21.8085 0.327 20.5935 0.168C19.3425 0.00299998 17.6865 0 15.3105 0H8.6895C6.3135 0 4.6575 0.00299998 3.4065 0.168ZM4.1385 6.8925C4.1385 6.2205 4.6935 5.676 5.379 5.676H18.621C18.9464 5.67319 19.2597 5.79949 19.4922 6.02723C19.7248 6.25496 19.8575 6.56556 19.8615 6.891C19.8579 7.21669 19.7253 7.52768 19.4928 7.75574C19.2602 7.98379 18.9467 8.1103 18.621 8.1075H5.379C5.05355 8.1103 4.74026 7.984 4.50774 7.75627C4.27523 7.52854 4.14245 7.21793 4.1385 6.8925ZM5.379 11.352C5.05355 11.3492 4.74026 11.4755 4.50774 11.7032C4.27523 11.931 4.14245 12.2416 4.1385 12.567C4.1385 13.239 4.6935 13.7835 5.379 13.7835H13.6545C13.9802 13.7867 14.2939 13.6606 14.5267 13.4328C14.7596 13.205 14.8925 12.8942 14.8965 12.5685C14.8929 12.2425 14.7601 11.9313 14.5272 11.7032C14.2944 11.4751 13.9805 11.3488 13.6545 11.352H5.379Z" fill="#39542F"/>
</svg>
