<svg width="38" height="30" viewBox="0 0 38 30" fill="none" xmlns="http://www.w3.org/2000/svg">
<path d="M27.7282 13.125H9.77503L9.2594 16.875H28.1969L27.7282 13.125ZM3.72815 30L6.02503 13.125H1.85315C1.22815 13.125 0.735652 12.875 0.375652 12.375C0.0156521 11.875 -0.0855978 11.3281 0.0719022 10.7344L2.74378 1.35937C2.86878 0.953125 3.08753 0.625 3.40003 0.375C3.71253 0.125 4.08753 0 4.52503 0H32.9313C33.3688 0 33.7438 0.125 34.0563 0.375C34.3688 0.625 34.5875 0.953125 34.7125 1.35937L37.3844 10.7344C37.5407 11.3281 37.4394 11.875 37.0807 12.375C36.7219 12.875 36.2294 13.125 35.6032 13.125H31.4782L33.7282 30H29.9782L28.7125 20.625H8.74378L7.47815 30H3.72815Z" fill="#B3B3B3"/>
</svg>
