<svg width="32" height="30" viewBox="0 0 32 30" fill="none" xmlns="http://www.w3.org/2000/svg">
<path d="M30.9933 14.7542L16.6138 0.328544C16.5103 0.224397 16.3873 0.14177 16.2519 0.0853942C16.1165 0.0290184 15.9714 0 15.8248 0C15.6783 0 15.5331 0.0290184 15.3978 0.0853942C15.2624 0.14177 15.1394 0.224397 15.0359 0.328544L0.656313 14.7542C0.23739 15.1748 0 15.7461 0 16.3419C0 17.5791 1.00192 18.5849 2.23426 18.5849H3.74936V28.8785C3.74936 29.4988 4.24858 30 4.86649 30H13.5906V22.1493H17.5005V30H26.7832C27.4011 30 27.9003 29.4988 27.9003 28.8785V18.5849H29.4154C30.0089 18.5849 30.5779 18.3501 30.9968 17.926C31.8661 17.0498 31.8661 15.6304 30.9933 14.7542Z" fill="#39542F"/>
</svg>
